<?xml version="1.0" encoding="UTF-8" standalone="no"?>
<!-- Created with Inkscape (http://www.inkscape.org/) -->

<svg
   version="1.1"
   id="svg2"
   width="1058.6667"
   height="793.33331"
   viewBox="0 0 1058.6667 793.33331"
   xmlns="http://www.w3.org/2000/svg"
   xmlns:svg="http://www.w3.org/2000/svg">
  <defs
     id="defs6">
    <clipPath
       clipPathUnits="userSpaceOnUse"
       id="clipPath16">
      <path
         d="M 0,-0.2 H 793.6 V 595 H 0 Z"
         clip-rule="evenodd"
         id="path14" />
    </clipPath>
    <clipPath
       clipPathUnits="userSpaceOnUse"
       id="clipPath106">
      <path
         d="M 252.3,218 H 761 V 536.1 H 252.3 Z"
         id="path104" />
    </clipPath>
  </defs>
  <g
     id="g8"
     transform="matrix(1.3333333,0,0,-1.3333333,0,793.33333)">
    <g
       id="g10">
      <g
         id="g12"
         clip-path="url(#clipPath16)">
        <path
           d="M 0,595 H 793.7 V -0.2 L 0,-0.2 Z"
           style="fill:#ffffff;fill-opacity:1;fill-rule:evenodd;stroke:none"
           id="path18" />
        <g
           id="g20">
          <path
             d="m 443.1,220.3 -50.9,229"
             style="fill:none;stroke:#9900ff;stroke-width:0.75;stroke-linecap:butt;stroke-linejoin:round;stroke-miterlimit:10;stroke-dasharray:none;stroke-opacity:1"
             id="path22" />
        </g>
        <path
           d="m 261.3,410.8 119,29.2"
           style="fill:none;stroke:#9900ff;stroke-width:0.1;stroke-linecap:butt;stroke-linejoin:miter;stroke-miterlimit:10;stroke-dasharray:none;stroke-opacity:1"
           id="path24" />
        <path
           d="m 249.4,407.9 13.5,-1.1 -2.1,8.3 z"
           style="fill:#9900ff;fill-opacity:1;fill-rule:evenodd;stroke:none"
           id="path26" />
        <path
           d="m 392.2,442.9 -13.4,1.1 2,-8.3 z"
           style="fill:#9900ff;fill-opacity:1;fill-rule:evenodd;stroke:none"
           id="path28" />
        <g
           id="g30">
          <text
             xml:space="preserve"
             transform="matrix(0.97154,0.23683,0.23683,-0.97154,316.3,415.7)"
             style="font-variant:normal;font-weight:normal;font-size:23.9997px;font-family:Arial;-inkscape-font-specification:ArialMT;writing-mode:lr-tb;fill:#000000;fill-opacity:1;fill-rule:nonzero;stroke:none"
             id="text34"><tspan
               x="0"
               y="0"
               id="tspan32">a</tspan></text>
        </g>
        <path
           d="m 404,446 345.2,89.2"
           style="fill:none;stroke:#9900ff;stroke-width:0.1;stroke-linecap:butt;stroke-linejoin:miter;stroke-miterlimit:10;stroke-dasharray:none;stroke-opacity:1"
           id="path36" />
        <path
           d="m 392.2,442.9 13.4,-0.9 -2.1,8.2 z"
           style="fill:#9900ff;fill-opacity:1;fill-rule:evenodd;stroke:none"
           id="path38" />
        <path
           d="m 761,538.3 -13.4,0.9 2.1,-8.2 z"
           style="fill:#9900ff;fill-opacity:1;fill-rule:evenodd;stroke:none"
           id="path40" />
        <g
           id="g42">
          <text
             xml:space="preserve"
             transform="matrix(0.96814,0.25038,0.25038,-0.96814,572.2,480.9)"
             style="font-variant:normal;font-weight:normal;font-size:23.9998px;font-family:Arial;-inkscape-font-specification:ArialMT;writing-mode:lr-tb;fill:#000000;fill-opacity:1;fill-rule:nonzero;stroke:none"
             id="text46"><tspan
               x="0"
               y="0"
               id="tspan44">b</tspan></text>
        </g>
        <path
           d="M 252.3,398.6 V 232.2"
           style="fill:none;stroke:#9900ff;stroke-width:0.1;stroke-linecap:butt;stroke-linejoin:miter;stroke-miterlimit:10;stroke-dasharray:none;stroke-opacity:1"
           id="path48" />
        <path
           d="M 252.3,410.7 248,398 h 8.5 z"
           style="fill:#9900ff;fill-opacity:1;fill-rule:evenodd;stroke:none"
           id="path50" />
        <path
           d="m 252.3,220 4.2,12.7 H 248 Z"
           style="fill:#9900ff;fill-opacity:1;fill-rule:evenodd;stroke:none"
           id="path52" />
        <g
           id="g54">
          <text
             xml:space="preserve"
             transform="matrix(0,-1,-1,0,243.9,321.4)"
             style="font-variant:normal;font-weight:normal;font-size:24px;font-family:Arial;-inkscape-font-specification:ArialMT;writing-mode:lr-tb;fill:#000000;fill-opacity:1;fill-rule:nonzero;stroke:none"
             id="text58"><tspan
               x="0"
               y="0"
               id="tspan56">c</tspan></text>
        </g>
        <path
           d="M 264.5,219.7 H 437.2"
           style="fill:none;stroke:#9900ff;stroke-width:0.1;stroke-linecap:butt;stroke-linejoin:miter;stroke-miterlimit:10;stroke-dasharray:none;stroke-opacity:1"
           id="path60" />
        <path
           d="m 252.3,219.7 12.7,-4.3 v 8.5 z"
           style="fill:#9900ff;fill-opacity:1;fill-rule:evenodd;stroke:none"
           id="path62" />
        <path
           d="m 449.4,219.7 -12.8,4.2 v -8.5 z"
           style="fill:#9900ff;fill-opacity:1;fill-rule:evenodd;stroke:none"
           id="path64" />
        <g
           id="g66">
          <text
             xml:space="preserve"
             transform="matrix(1,0,0,-1,344.9,211.3)"
             style="font-variant:normal;font-weight:normal;font-size:24px;font-family:Arial;-inkscape-font-specification:ArialMT;writing-mode:lr-tb;fill:#000000;fill-opacity:1;fill-rule:nonzero;stroke:none"
             id="text70"><tspan
               x="0"
               y="0"
               id="tspan68">c</tspan></text>
        </g>
        <path
           d="M 455.2,219.7 H 748.8"
           style="fill:none;stroke:#9900ff;stroke-width:0.1;stroke-linecap:butt;stroke-linejoin:miter;stroke-miterlimit:10;stroke-dasharray:none;stroke-opacity:1"
           id="path72" />
        <path
           d="m 443.1,219.7 12.7,-4.3 v 8.5 z"
           style="fill:#9900ff;fill-opacity:1;fill-rule:evenodd;stroke:none"
           id="path74" />
        <path
           d="m 761,219.7 -12.7,4.2 v -8.5 z"
           style="fill:#9900ff;fill-opacity:1;fill-rule:evenodd;stroke:none"
           id="path76" />
        <g
           id="g78">
          <text
             xml:space="preserve"
             transform="matrix(1,0,0,-1,595.4,211.3)"
             style="font-variant:normal;font-weight:normal;font-size:24px;font-family:Arial;-inkscape-font-specification:ArialMT;writing-mode:lr-tb;fill:#000000;fill-opacity:1;fill-rule:nonzero;stroke:none"
             id="text82"><tspan
               x="0"
               y="0"
               id="tspan80">d</tspan></text>
        </g>
        <path
           d="M 761,526.1 V 232.7"
           style="fill:none;stroke:#9900ff;stroke-width:0.1;stroke-linecap:butt;stroke-linejoin:miter;stroke-miterlimit:10;stroke-dasharray:none;stroke-opacity:1"
           id="path84" />
        <path
           d="m 761,538.3 -4.2,-12.7 h 8.5 z"
           style="fill:#9900ff;fill-opacity:1;fill-rule:evenodd;stroke:none"
           id="path86" />
        <path
           d="m 761,220.5 4.3,12.8 h -8.5 z"
           style="fill:#9900ff;fill-opacity:1;fill-rule:evenodd;stroke:none"
           id="path88" />
        <g
           id="g90">
          <text
             xml:space="preserve"
             transform="matrix(0,-1,-1,0,752.7,386.1)"
             style="font-variant:normal;font-weight:normal;font-size:24px;font-family:Arial;-inkscape-font-specification:ArialMT;writing-mode:lr-tb;fill:#000000;fill-opacity:1;fill-rule:nonzero;stroke:none"
             id="text94"><tspan
               x="0"
               y="0"
               id="tspan92">d</tspan></text>
        </g>
        <g
           id="g96">
          <path
             d="M 443.3,216.6 392.4,445.5"
             style="fill:none;stroke:#9900ff;stroke-width:0.75;stroke-linecap:butt;stroke-linejoin:round;stroke-miterlimit:10;stroke-dasharray:none;stroke-opacity:1"
             id="path98" />
        </g>
        <g
           id="g100">
          <g
             id="g102" />
          <g
             id="g112">
            <g
               clip-path="url(#clipPath106)"
               opacity="0.5"
               id="g110">
              <path
                 d="M 252.3,218 H 761 V 536 L 252.3,408.8 Z"
                 style="fill:#ffff99;fill-opacity:1;fill-rule:evenodd;stroke:none"
                 id="path108" />
            </g>
          </g>
        </g>
        <g
           id="g114">
          <path
             d="M 252.3,218 H 761 V 536 L 252.3,408.8 Z"
             style="fill:none;stroke:#9900ff;stroke-width:0.75;stroke-linecap:butt;stroke-linejoin:round;stroke-miterlimit:10;stroke-dasharray:none;stroke-opacity:1"
             id="path116" />
        </g>
        <g
           id="g118">
          <text
             xml:space="preserve"
             transform="matrix(1,0,0,-1,37.6,539.3)"
             style="font-variant:normal;font-weight:normal;font-size:24px;font-family:Arial;-inkscape-font-specification:ArialMT;writing-mode:lr-tb;fill:#000000;fill-opacity:1;fill-rule:nonzero;stroke:none"
             id="text122"><tspan
               x="0 17.304001 30.6 43.967999 55.967999 62.639999 74.639999 87.935997 94.608002 101.28 109.272 122.568 135.936 149.23199 161.23199 174.60001 181.272 187.87199 201.24001 214.536 221.20799 233.20799 246.576 259.87201 273.23999 286.53601 291.84 298.51199 305.18399 310.48801 323.85599 335.85599 342.52802 347.832 361.12799 374.496 387.79199 401.16 414.52802 427.82401 435.81601"
               y="0"
               id="tspan120">Dans ce trapèze, on connait les longueurs</tspan></text>
        </g>
        <g
           id="g124">
          <text
             xml:space="preserve"
             transform="matrix(1,0,0,-1,37.6,512.6)"
             style="font-variant:normal;font-weight:normal;font-size:24px;font-family:Arial;-inkscape-font-specification:ArialMT;writing-mode:lr-tb;fill:#000000;fill-opacity:1;fill-rule:nonzero;stroke:none"
             id="text128"><tspan
               x="0 13.296 26.664 33.264 38.639999 51.936001 59.928001 73.295998 85.295998 91.896004 105.264 111.936 125.232 131.90401 138.576 151.87199 158.54401 178.536 191.832 197.20799 209.20799 215.808 229.17599 242.472 254.54401 261.14401 273.14401 279.81601 293.112 299.784 306.45599 319.75201"
               y="0"
               id="tspan126">entières a et b mais pas c et d.</tspan></text>
        </g>
        <g
           id="g130">
          <text
             xml:space="preserve"
             transform="matrix(1,0,0,-1,37.6,459.1)"
             style="font-variant:normal;font-weight:normal;font-size:24px;font-family:Arial;-inkscape-font-specification:ArialMT;writing-mode:lr-tb;fill:#000000;fill-opacity:1;fill-rule:nonzero;stroke:none"
             id="text134"><tspan
               x="0 14.592 22.584 35.952 49.248001 61.248001 74.615997 86.615997 93.288002 98.592003 103.176 116.472 121.848 129.84 143.136 149.808 163.104 176.472 183.144 189.744 197.73599 211.104 224.39999 237.76801 249.76801"
               y="0"
               id="tspan132">Trouvez l'aire du trapèze</tspan></text>
        </g>
      </g>
    </g>
  </g>
</svg>
