<svg width="496" height="691" viewBox="0 0 496 691" fill="none" xmlns="http://www.w3.org/2000/svg">
<path d="M256.553 363.329C235.191 356.082 224.061 351.078 204.464 339.906M204.464 339.906C187.494 326.947 182.417 317.792 171 301.501C152.2 274.674 140.088 257.324 130.5 226C121.462 196.472 119 192.5 122.5 147.501C123.633 132.936 136.34 102.759 155.5 81.0009C177.302 56.2434 190.813 44.3754 227.5 36.8228C265.5 29 284 32.2585 299.5 38.5003C318.068 45.9777 331.865 53.8488 348 69.5003C363.55 84.5845 369.113 96.1349 379.622 115.08C403.369 157.893 407.431 187.109 414.101 235.611C419.53 275.096 418.454 297.851 416.266 337.648C412.406 407.824 382.365 514.396 382.365 514.396C382.365 514.396 355.431 584.949 320.63 615.358C297.132 635.891 281.733 648.861 251.079 654.697C201.967 664.047 163.992 648.063 130.899 610.589C108.652 585.398 97.5466 531.254 97.5466 531.254C97.5466 531.254 86.6537 465.33 101.712 427.807C115.574 393.268 130.201 372.677 162.737 354.607C177.841 346.219 187.438 342.839 204.464 339.906Z" stroke="white" stroke-width="32"/>
<path d="M270 604.753C270 604.753 292.434 590.576 309.676 564.235C319.295 549.539 324.061 540.866 331.308 524.868M350.191 466.807C350.191 466.807 343.594 498.168 339.191 507.859" stroke="white" stroke-width="32"/>
<path d="M303.869 109.136C310.822 122.901 312.377 135.495 327.007 134.215C341.636 132.935 350.073 125.628 348.675 109.648C347.277 93.6676 320.236 76.0837 305.607 77.3637C286.373 82.8275 291.704 92.1315 303.869 109.136Z" fill="white"/>
</svg>
